<svg width="19" height="15" viewBox="0 0 19 15" fill="none" xmlns="http://www.w3.org/2000/svg">
<g clip-path="url(#clip0_284_163)">
<path d="M13.8214 11.5483H5.85486V12.1875H13.8214V11.5483Z" fill="#0079C4"/>
<path d="M13.8214 8.95572H5.85486V9.59498H13.8214V8.95572Z" fill="#0079C4"/>
<path d="M13.8214 6.3634H5.85486V7.00287H13.8214V6.3634Z" fill="#0079C4"/>
<path d="M13.8214 3.77124H10.0665V4.4105H13.8214V3.77124Z" fill="#0079C4"/>
<path d="M15.2672 0H8.67849C8.20549 0 7.7518 0.15791 7.41732 0.438545L3.30742 3.89027C2.97287 4.17114 2.78497 4.55227 2.78497 4.94953V13.6361C2.78497 14.3881 3.51369 15 4.40923 15H15.2672C16.1626 15 16.8913 14.3881 16.8913 13.6361V1.36354C16.8913 0.61166 16.1626 0 15.2672 0ZM8.10268 0.947725V4.0137C8.10268 4.34514 7.94901 4.47431 7.55435 4.47431H3.90336L8.10268 0.947725ZM15.978 13.6361C15.978 13.9653 15.659 14.2329 15.2672 14.2329H4.40923C4.01723 14.2329 3.69827 13.9653 3.69827 13.6361V5.15619H8.04337C8.52374 5.15619 8.91474 4.82786 8.91474 4.42421V0.767109H15.2672C15.659 0.767109 15.978 1.0345 15.978 1.36354V13.6361Z" fill="#0079C4"/>
</g>
<defs>
<clipPath id="clip0_284_163">
<rect width="17.8613" height="15" fill="white" transform="translate(0.907532)"/>
</clipPath>
</defs>
</svg>
